<svg xmlns="http://www.w3.org/2000/svg" xmlns:xlink="http://www.w3.org/1999/xlink" width="500" zoomAndPan="magnify" viewBox="0 0 375 374.999991" height="500" preserveAspectRatio="xMidYMid meet" version="1.0"><defs><clipPath id="id1"><path d="M 63.792969 115.921875 L 107 115.921875 L 107 206 L 63.792969 206 Z M 63.792969 115.921875 " clip-rule="nonzero"/></clipPath><clipPath id="id2"><path d="M 109 116 L 337.542969 116 L 337.542969 232.171875 L 109 232.171875 Z M 109 116 " clip-rule="nonzero"/></clipPath></defs><rect x="-37.5" width="450" fill="#ffffff" y="-37.499999" height="449.999989" fill-opacity="1"/><rect x="-37.5" width="450" fill="#001920" y="-37.499999" height="449.999989" fill-opacity="1"/><rect x="-37.5" width="450" fill="#ffffff" y="-37.499999" height="449.999989" fill-opacity="1"/><rect x="-37.5" width="450" fill="#001920" y="-37.499999" height="449.999989" fill-opacity="1"/><g clip-path="url(#id1)"><path fill="#d9d9d9" d="M 106.507812 115.9375 L 74.710938 205.476562 L 63.792969 202.636719 Z M 106.507812 115.9375 " fill-opacity="1" fill-rule="evenodd"/></g><path fill="#d9d9d9" d="M 81.167969 212.746094 L 75.707031 212.746094 L 98.96875 158.023438 Z M 81.167969 212.746094 " fill-opacity="1" fill-rule="evenodd"/><path fill="#d9d9d9" d="M 101.097656 164.660156 L 89.472656 221.035156 L 84.71875 221.035156 Z M 101.097656 164.660156 " fill-opacity="1" fill-rule="evenodd"/><path fill="#d9d9d9" d="M 106.628906 174.019531 L 112.425781 174.019531 L 112.425781 185.566406 L 106.628906 185.566406 Z M 106.628906 174.019531 " fill-opacity="1" fill-rule="evenodd"/><path fill="#d9d9d9" d="M 116.292969 174.019531 L 122.085938 174.019531 L 122.085938 185.566406 L 116.292969 185.566406 Z M 116.292969 174.019531 " fill-opacity="1" fill-rule="evenodd"/><path fill="#d9d9d9" d="M 106.628906 159.574219 L 112.425781 159.574219 L 112.425781 171.132812 L 106.628906 171.132812 Z M 106.628906 159.574219 " fill-opacity="1" fill-rule="evenodd"/><path fill="#d9d9d9" d="M 116.292969 159.574219 L 122.085938 159.574219 L 122.085938 171.132812 L 116.292969 171.132812 Z M 116.292969 159.574219 " fill-opacity="1" fill-rule="evenodd"/><g clip-path="url(#id2)"><path fill="#1fa2c5" d="M 312.609375 203.15625 L 164.515625 203.15625 L 109.691406 116.140625 L 287.210938 116.140625 L 295.199219 129.945312 L 234.769531 129.945312 L 249.472656 140.554688 L 246.003906 149.363281 L 306.433594 149.363281 L 337.542969 203.15625 L 321.632812 203.15625 L 331.386719 220.023438 L 309.707031 220.023438 L 316.730469 232.15625 L 145.410156 232.15625 L 138.417969 197.402344 L 150.636719 225.972656 L 304.136719 225.972656 L 300.6875 220.023438 L 153.761719 220.023438 L 131.925781 170.257812 L 158.988281 213.839844 L 318.792969 213.839844 Z M 312.609375 203.15625 " fill-opacity="1" fill-rule="evenodd"/></g></svg>